<svg xmlns="http://www.w3.org/2000/svg" viewBox="0 0 90 100"><path d="M45 0S0 29.6 0 57s17.6 43 45 43 45-15.6 45-43S45 0 45 0z" fill="#166cc1"/><path d="M64 38.7v2c0 .9-.2 1.4-.5 1.6L60 44a40.9 40.9 0 0 0-5.9 3.3 11.8 11.8 0 0 1 2-2.3l2.5-2a10.2 10.2 0 0 0-3.7-.5A24.3 24.3 0 0 0 47 44a30.3 30.3 0 0 0-7.2 3.4q-2.9 2-2.9 3.4c0 .4.3.8.9 1.1a9.3 9.3 0 0 0 2.9.7l5 .4h7.2a20.7 20.7 0 0 1 4 .2 1 1 0 0 1 1 1.1 4.3 4.3 0 0 1-1 2.5 4.3 4.3 0 0 1-2.9 1.7l-4.3.7a29.7 29.7 0 0 0-3.9 1 35.9 35.9 0 0 0-4.9 2.1 27.5 27.5 0 0 0-6.2 4.3q-2.3 2.2-2.3 3.8a2.5 2.5 0 0 0 1.6 2.3 10.6 10.6 0 0 0 4.6.8q10.4 0 21.2-9.3a15.7 15.7 0 0 1-.6 5 10 10 0 0 1-2.8 4.2 18.4 18.4 0 0 1-5.2 3.2 40 40 0 0 1-7.3 2.5 34.4 34.4 0 0 1-7.6.9 11.1 11.1 0 0 1-6.7-2 6.1 6.1 0 0 1-2.7-5.2 9.5 9.5 0 0 1 1.3-4.6 15.6 15.6 0 0 1 4-4.5 28.6 28.6 0 0 1 6.7-3.8 46.1 46.1 0 0 1 9.5-2.7c.5-.1.7-.3.7-.5s-.3-.4-.9-.4l-3.3-.1-4.2-.2a21.5 21.5 0 0 1-3.8-.8 5.9 5.9 0 0 1-3.2-2.3 6 6 0 0 1-1.1-3.5 8.7 8.7 0 0 1 1.8-5.1 17.4 17.4 0 0 1 5.1-4.6 29.7 29.7 0 0 1 8-3.3 40.2 40.2 0 0 1 10.3-1.2 18.2 18.2 0 0 1 4.5.3c.8.3 1.3.6 1.5 1a8 8 0 0 1 .2 2.2z" fill="#fff"/></svg>