<svg xmlns="http://www.w3.org/2000/svg" viewBox="0 0 56 50"><path d="M52.7,15.8c-0.6-0.8-0.9-1.3-0.8-2.2c0.2-1.9-0.1-3.8-0.3-5.6l0-0.1c-0.3-2.5-1-4.8-1.9-7L49.3,0l-1.5,0.3c-2.1,0.4-4.2,0.9-6.2,2c-1.3,0.8-2.6,1.6-3.9,2.4c-0.8,0.5-1.7,1.1-2.5,1.6c0,0-0.1,0.1-0.2,0.1l0,0c-4.5-0.8-9.3-0.8-14,0c-0.1,0-0.3,0-0.4-0.1c-0.5-0.3-1-0.7-1.5-1c-0.6-0.4-1.2-0.8-1.8-1.1c-2.9-1.7-6.1-3.4-9.9-3.9L6.7,0.1L6.3,0.9C6.2,1.1,6.1,1.2,6.1,1.4c-1.1,3-1.7,6.1-2,9.3C4,11.8,4,13,4.1,14.2c0.1,0.4,0,0.5-0.1,0.7c-1.4,1.7-2.3,3.5-3,5.5c-1.1,3.3-1.3,7-0.6,11.6c0.5,3.8,1.5,6.7,3,9.1c3.2,5.1,8.3,8,14.9,8.6C21.6,50,25,50,28.3,50c0.7,0,1.4,0,2.1,0c0.9,0,1.9,0,2.8,0c4.2,0,7.6-0.6,10.7-1.8c5.5-2.2,9.1-6.2,10.8-12c1-3.2,1.4-6.7,1.3-10.2C55.9,22.1,54.8,18.6,52.7,15.8z"/><path fill="#FFC09F" d="M39.7,22.3c0,0-0.1,0-0.2,0c-0.9,0-1.9,0.1-2.8,0.1c-0.9,0-1.7,0.1-2.6,0.1l-1.5,0c-2.6,0.1-5.3,0.1-7.9,0.1c-1.2,0-2.4-0.1-3.6-0.1c-1.6-0.1-3.3-0.1-5-0.1c-2.3,0.1-4.3,0.8-5.8,2.2l0,0c-2.5,2.3-3.6,5.5-3.2,9.5c0.6,5.9,2.9,8.9,8.1,10.4c4.4,1.3,8.8,1.4,12.5,1.3l1.2,0c0.4,0,0.8,0,1.3,0c0.5,0,1,0,1.5,0c3.7-0.1,6.9-0.7,9.8-1.7c3.2-1.1,5.4-3.3,6.4-6.3c0.8-2.4,1-4.6,0.7-6.8C48.3,27.4,45.2,22.3,39.7,22.3z"/><path d="M38.2,38.2c-2,0-3.5-2.1-3.5-4.6c0-2.5,1.6-4.6,3.5-4.6c2,0,3.5,2.1,3.5,4.6C41.7,36.1,40.1,38.2,38.2,38.2zM18.8,38.2c-2,0-3.5-2.1-3.5-4.6c0-2.5,1.6-4.6,3.5-4.6c2,0,3.5,2.1,3.5,4.6C22.4,36.1,20.8,38.2,18.8,38.2z" fill="#B1423A" stroke="#fff" stroke-width="2"/></svg>
