<svg xmlns="http://www.w3.org/2000/svg" viewBox="0 0 496 434"><path d="M248.1 372c-9.3 0-18.6-4.8-28.2-14.4a9.7 9.7 0 0 1 .3-13.7 9.6 9.6 0 0 1 13.2-.1c6 6 10.7 8.8 14.5 8.8 3.7 0 8.6-2.8 14.4-8.7a9.7 9.7 0 0 1 13.7 0 9.7 9.7 0 0 1 0 13.7c-9.5 9.5-18.8 14.4-27.9 14.4zM0 223.5c0 24.2 2 46 6.2 65.8 4.2 19.7 10 36.6 17.4 51.1 7.4 14.3 17 27 28.5 37.9a165.1 165.1 0 0 0 37.3 27 206 206 0 0 0 46.1 17c17.3 4.4 34.9 7.4 52.8 9.1 17.9 1.8 37.7 2.6 59.1 2.6s41.3-.9 59.3-2.6a361 361 0 0 0 52.9-9.1 212 212 0 0 0 46.2-17.1c13.6-7.1 26-16 37.6-26.9a141.2 141.2 0 0 0 28.6-37.9 209.3 209.3 0 0 0 17.7-51.1c4.2-19.5 6.2-41.5 6.2-65.7a166 166 0 0 0-40.3-111.9c1.6-4.2 2.9-8.9 4-14.3s2.2-13 3.3-22.9c.9-9.8.7-21.1-1.2-34-1.9-12.8-5.2-26-10.2-39.3l-3.8-.8c-2.6-.5-6.8-.3-12.6.6-5.9.9-12.7 2.4-20.6 4.6-10.5 3.5-20.7 8-30.3 13.5-13.7 7.5-26.9 16-39.3 25.4a329 329 0 0 0-194 0 341.2 341.2 0 0 0-39.3-25.3A186.7 186.7 0 0 0 81.5 5.6a102.8 102.8 0 0 0-33-5.4c-1.9.3-3.2.6-4 .9-5 13.4-8.5 26.5-10.3 39.3a138 138 0 0 0-1.3 33.9 198 198 0 0 0 3.3 23c1.2 5.6 2.6 10.2 4.1 14.3A165.8 165.8 0 0 0 0 223.5zm66.2 55.2a111 111 0 0 1 31-76.4c6-6.8 13.3-12.2 21.6-15.8a78.5 78.5 0 0 1 27.9-6.1c10.4-.5 20.5-.4 29.9.3l35.2 2.8a476 476 0 0 0 36.2 1.8c10.2 0 22.2-.7 36.2-1.9l35.2-2.7c9.4-.7 19.3-.7 29.8-.3s19.8 2.5 28.1 6.1c8.3 3.6 15.7 9 21.7 15.8 20.6 22.9 31 48.4 31 76.4 0 16.5-1.7 31.2-5.1 44.1a127.8 127.8 0 0 1-13 32.4 66.7 66.7 0 0 1-22.1 22.1 144.9 144.9 0 0 1-27.5 13.9 163 163 0 0 1-34.4 7.7c-13.9 1.9-26.5 3-37.7 3.3-11.2.4-25.1.6-41.9.6-16.9 0-30.9-.2-41.8-.6a418 418 0 0 1-37.6-3.3 161.6 161.6 0 0 1-34.4-7.7c-9.6-3.7-18.9-8.4-27.5-13.9a66.4 66.4 0 0 1-22-22.1c-5.3-8.6-9.6-19.5-13-32.4a142.8 142.8 0 0 1-5.8-44.1zm57.8-15.2c0 25.7 13.9 46.5 31.1 46.5s31-20.8 31-46.5-13.9-46.5-31-46.5-31.1 20.9-31.1 46.5zm186 0c0 25.7 13.9 46.5 31.1 46.5s31-20.8 31-46.5-13.9-46.5-31-46.5-31.1 20.9-31.1 46.5z"/></svg>